<?xml version="1.0" encoding="UTF-8"?>
<svg id="Warstwa_2" data-name="Warstwa 2" xmlns="http://www.w3.org/2000/svg" viewBox="0 0 265.58 67.83">
  <defs>
    <style>
      .cls-1 {
        fill: #f9e663;
      }

      .cls-2 {
        fill: #fff;
      }
    </style>
  </defs>
  <g id="Warstwa_1-2" data-name="Warstwa 1">
    <g>
      <g id="SvgjsG1387">
        <path class="cls-1" d="M20.33,67.83c-.3,0-.6-.08-.85-.25-.55-.36-.82-1.04-.66-1.68l2.77-11.19h-10.74c-.74,0-1.37-.51-1.52-1.23L.03,9.26c-.09-.43,0-.88.27-1.24.26-.36.65-.59,1.09-.63L70.05.01c.47-.06.95.12,1.28.46s.49.82.43,1.29l-6.11,45.36c-.11.77-.76,1.35-1.55,1.35h-17.92l-24.91,19.04c-.28.22-.62.32-.95.32Z"/>
      </g>
      <g id="SvgjsG1388">
        <path class="cls-2" d="M99.3,42.75c-6.69,0-11.83-3.96-13.17-8.35l6.37-1.87c.91,2.57,3.48,4.5,7.07,4.5,2.73,0,4.5-1.28,4.5-2.78,0-1.34-1.02-2.09-3-2.68l-6.91-2.03c-3.85-1.12-6.69-3.37-6.69-7.23,0-4.55,4.93-8.14,10.87-8.14s10.28,2.78,11.99,6.85l-6.26,1.82c-.96-1.71-2.94-3.16-5.78-3.16-2.19,0-3.85,1.18-3.85,2.46,0,1.07.75,1.71,2.25,2.14l6.75,1.93c4.07,1.18,7.6,2.84,7.6,7.71s-4.82,8.83-11.72,8.83ZM128.16,42.75c-7.49,0-13.38-6.1-13.38-14.29s5.89-14.29,13.38-14.29c3.8,0,6.8,1.55,8.73,4.01v-3.27h7.12v27.09h-7.12v-3.32c-1.93,2.46-4.93,4.07-8.73,4.07ZM129.39,36.44c4.28,0,7.71-3.32,7.71-8.03s-3.43-7.92-7.71-7.92-7.6,3.27-7.6,7.92,3.16,8.03,7.6,8.03ZM150.96,42V2.92h7.07v39.08h-7.07ZM178.05,42.75c-8.67,0-14.72-5.73-14.72-14.29,0-8.08,5.67-14.29,14.19-14.29s13.97,6.16,13.97,13.92c0,.86,0,1.66-.16,2.52h-21.04c.48,3.48,2.94,6.16,7.87,6.16,3.43,0,5.51-1.55,6.58-3.59l6.37,1.87c-1.55,3.53-5.94,7.71-13.06,7.71ZM170.29,26.16h14.29c-.32-3.32-2.89-6-7.12-6s-6.8,2.89-7.17,6ZM209.58,42.75c-8.3,0-14.4-6.21-14.4-14.35s6.1-14.24,14.35-14.24c7.49,0,12.15,4.82,13.22,8.89l-6.58,1.87c-.59-2.25-3.1-4.5-6.64-4.5-4.5,0-7.39,3.69-7.39,7.98s2.89,8.03,7.39,8.03c3.53,0,6.05-2.09,6.64-4.34l6.58,1.82c-1.07,4.12-5.73,8.83-13.17,8.83ZM245.98,42l-7.87-10.44-3.16,3.53v6.91h-7.07V2.92h7.07v23.18l9.74-11.19h8.24l-10.39,11.67,11.46,15.42h-8.03ZM261.35,11.12c-2.36,0-4.23-1.82-4.23-4.18s1.87-4.07,4.23-4.07,4.23,1.82,4.23,4.07-1.87,4.18-4.23,4.18ZM257.71,42V14.92h7.12v27.09h-7.12Z"/>
      </g>
    </g>
  </g>
</svg>